<mxfile host="app.diagrams.net" modified="2022-01-20T17:01:28.385Z" agent="5.0 (Macintosh; Intel Mac OS X 10_15_7) AppleWebKit/537.36 (KHTML, like Gecko) Chrome/96.0.4664.110 Safari/537.36" etag="Lmsi8Ai5JP9uQ5HWYTqN" version="16.4.3" type="github">
  <diagram id="-v1-mRR_pyyAVvCUj0WF" name="Page-1">
    <mxGraphModel dx="1186" dy="739" grid="1" gridSize="10" guides="1" tooltips="1" connect="1" arrows="1" fold="1" page="1" pageScale="1" pageWidth="850" pageHeight="1100" math="0" shadow="0">
      <root>
        <mxCell id="0" />
        <mxCell id="1" parent="0" />
        <mxCell id="HZ2FapjDQMSZiR75Ls6n-1" value="" style="shape=cylinder3;whiteSpace=wrap;html=1;boundedLbl=1;backgroundOutline=1;size=15;" vertex="1" parent="1">
          <mxGeometry x="250" y="230" width="60" height="80" as="geometry" />
        </mxCell>
        <mxCell id="HZ2FapjDQMSZiR75Ls6n-2" value="Vertical Container" style="swimlane;" vertex="1" parent="1">
          <mxGeometry x="230" y="490" width="200" height="200" as="geometry" />
        </mxCell>
        <mxCell id="HZ2FapjDQMSZiR75Ls6n-3" value="" style="endArrow=classic;startArrow=classic;html=1;rounded=0;exitX=0.5;exitY=0;exitDx=0;exitDy=0;" edge="1" parent="1" source="HZ2FapjDQMSZiR75Ls6n-2" target="HZ2FapjDQMSZiR75Ls6n-1">
          <mxGeometry width="50" height="50" relative="1" as="geometry">
            <mxPoint x="400" y="400" as="sourcePoint" />
            <mxPoint x="450" y="350" as="targetPoint" />
          </mxGeometry>
        </mxCell>
      </root>
    </mxGraphModel>
  </diagram>
</mxfile>
